#!OML:ASF F:\VICON\USERDATA\INSTALL\rory3\rory3.ASF
:FULLY-SPECIFIED
:DEGREES
284
root 3.3762 17.9784 -9.35496 147.098 89.2358 140.496
lowerback 22.874 -0.284818 -0.071996
upperback 5.98502 0.157184 1.36677
thorax -6.19565 0.259541 1.45882
lowerneck -12.9608 -3.89996 -9.76768
upperneck 37.839 -3.16956 5.25137
head 15.8841 -1.52788 3.61852
rclavicle 1.05356e-014 3.49861e-014
rhumerus -26.0633 -6.40365 -80.3383
rradius 50.2118
rwrist -0.833956
rhand -15.414 9.83697
rfingers 7.12502
rthumb 10.7654 -19.8672
lclavicle 1.05356e-014 3.49861e-014
lhumerus -16.8166 -9.95075 86.7228
lradius 37.3378
lwrist -1.58197
lhand -21.9361 25.5577
lfingers 7.12502
lthumb 4.47051 55.4905
rfemur -21.3944 -3.5894 26.1979
rtibia 30.7329
rfoot -13.0785 -9.57319
rtoes 14.0503
lfemur -29.712 -2.9505 -16.3789
ltibia 38.6256
lfoot -6.32569 -3.49409
ltoes -13.3757
285
root 3.4386 17.9744 -9.35998 137.745 89.4596 131.071
lowerback 23.2174 -0.274861 -0.0808617
upperback 6.21556 0.187949 1.33162
thorax -6.11999 0.28249 1.41731
lowerneck -13.1416 -3.83416 -9.68713
upperneck 37.667 -3.11081 5.26606
head 15.8297 -1.4947 3.61063
rclavicle -9.54166e-015 -8.74653e-015
rhumerus -25.9195 -5.51577 -80.4618
rradius 51.1216
rwrist -1.20841
rhand -15.3937 10.0503
rfingers 7.12502
rthumb 10.7851 -19.6528
lclavicle -9.54166e-015 -8.74653e-015
lhumerus -16.1612 -10.2392 86.6215
lradius 37.5029
lwrist -1.10713
lhand -22.1256 25.7981
lfingers 7.12502
lthumb 4.28751 55.7347
rfemur -21.3918 -3.3949 26.2588
rtibia 31.0388
rfoot -13.2713 -9.50393
rtoes 14.0829
lfemur -30.1021 -2.97537 -16.2061
ltibia 37.045
lfoot -6.04575 -3.80104
ltoes -13.6605
286
root 3.50126 17.9714 -9.36578 102.45 89.4196 95.6484
lowerback 23.5147 -0.217291 -0.530124
upperback 6.43032 0.17886 1.33519
thorax -6.0354 0.287853 1.68118
lowerneck -13.2819 -3.73709 -9.68127
upperneck 37.4385 -2.96341 5.20354
head 15.7291 -1.44595 3.59425
rclavicle 0 -6.75868e-015
rhumerus -25.7482 -4.68506 -80.4728
rradius 52.0507
rwrist -1.36678
rhand -15.2881 10.1519
rfingers 7.12502
rthumb 10.8868 -19.5459
lclavicle 0 -6.75868e-015
lhumerus -15.6188 -10.483 86.5179
lradius 37.7977
lwrist -0.692813
lhand -22.0142 26.023
lfingers 7.12502
lthumb 4.39509 55.9574
rfemur -21.4823 -3.25694 26.0452
rtibia 31.4046
rfoot -13.5181 -9.42479
rtoes 13.628
lfemur -30.4512 -3.2583 -16.1656
ltibia 35.3485
lfoot -5.63199 -4.05978
ltoes -9.92897
287
root 3.56183 17.965 -9.37594 83.7779 89.2157 76.8075
lowerback 23.8102 -0.206129 -1.0167
upperback 6.61698 0.0986406 1.34703
thorax -5.97595 0.257681 1.99604
lowerneck -13.4008 -3.64287 -9.71119
upperneck 37.1985 -2.8159 5.14649
head 15.62 -1.40184 3.5862
rclavicle 1.35174e-014 1.55052e-014
rhumerus -25.471 -3.9256 -80.5233
rradius 52.8459
rwrist -1.42811
rhand -15.6445 9.86529
rfingers 7.12502
rthumb 10.5431 -19.8503
lclavicle 1.35174e-014 1.55052e-014
lhumerus -15.081 -10.5674 86.412
lradius 38.0466
lwrist -0.25611
lhand -22.1008 26.5084
lfingers 7.12502
lthumb 4.3114 56.4445
rfemur -21.6659 -3.26168 25.8214
rtibia 31.8169
rfoot -13.8229 -9.32783
rtoes 12.5415
lfemur -30.8169 -3.70908 -16.1376
ltibia 33.5443
lfoot -5.3417 -3.93425
ltoes -6.15857
288
root 3.62115 17.9478 -9.38547 62.0659 89.2158 54.9545
lowerback 24.2569 -0.219373 -1.08741
upperback 6.74116 0.0774608 1.32386
thorax -6.06368 0.254319 2.01912
lowerneck -13.4724 -3.56475 -9.70577
upperneck 37.0109 -2.74847 5.21965
head 15.5353 -1.36797 3.61807
rclavicle -1.19271e-015 -3.57812e-015
rhumerus -25.2524 -3.20746 -80.6553
rradius 53.5138
rwrist -1.71011
rhand -16.0107 9.73061
rfingers 7.12502
rthumb 10.1898 -20.0026
lclavicle -1.19271e-015 -3.57812e-015
lhumerus -14.4563 -10.243 86.2419
lradius 38.0161
lwrist -0.320697
lhand -22.0344 26.6227
lfingers 7.12502
lthumb 4.37554 56.5575
rfemur -21.8717 -3.04652 25.914
rtibia 32.2862
rfoot -14.1745 -9.53037
rtoes 11.359
lfemur -31.1557 -3.73182 -15.9703
ltibia 31.6796
lfoot -5.26798 -3.71744
ltoes -8.37261
289
root 3.67949 17.9308 -9.39705 44.4596 89.0234 37.1872
lowerback 24.7839 -0.180013 -1.09227
upperback 6.80223 0.127074 1.20653
thorax -6.26315 0.284641 1.88168
lowerneck -13.4317 -3.49943 -9.56442
upperneck 36.8245 -2.75445 5.31992
head 15.4285 -1.34048 3.62534
rclavicle 3.37934e-015 1.35174e-014
rhumerus -25.2073 -2.85505 -80.772
rradius 54.2103
rwrist -1.93357
rhand -15.8356 9.85269
rfingers 7.12502
rthumb 10.3588 -19.8722
lclavicle 3.37934e-015 1.35174e-014
lhumerus -13.9492 -10.381 86.0573
lradius 38.1102
lwrist -0.213481
lhand -22.1864 26.6147
lfingers 7.12502
lthumb 4.22875 56.5525
rfemur -22.1283 -2.84668 25.9146
rtibia 32.756
rfoot -14.5223 -9.7241
rtoes 10.6721
lfemur -31.5004 -3.58857 -15.9281
ltibia 29.8265
lfoot -5.11394 -3.60578
ltoes -11.74
290
root 3.73388 17.9167 -9.41427 37.9137 88.8091 30.4446
lowerback 25.32 -0.141647 -1.10856
upperback 6.8866 0.178604 1.13238
thorax -6.44002 0.316667 1.79615
lowerneck -13.4707 -3.47416 -9.47025
upperneck 36.6131 -2.76031 5.309
head 15.33 -1.33443 3.59168
rclavicle -1.39149e-015 6.75868e-015
rhumerus -25.1952 -2.77821 -80.7462
rradius 55.0186
rwrist -1.8572
rhand -15.5476 9.97773
rfingers 7.12502
rthumb 10.6366 -19.7331
lclavicle -1.39149e-015 6.75868e-015
lhumerus -13.4286 -10.7924 86.0039
lradius 38.344
lwrist 0.0815348
lhand -22.4287 26.7708
lfingers 7.12502
lthumb 3.99483 56.7131
rfemur -22.4027 -2.75355 25.8364
rtibia 33.183
rfoot -14.8252 -9.51057
rtoes 11.4945
lfemur -31.8911 -3.66127 -15.8818
ltibia 28.0141
lfoot -4.92301 -3.38606
ltoes -12.244
291
root 3.78675 17.9033 -9.43478 33.6446 88.6866 26.0537
lowerback 25.9774 -0.191542 -0.998196
upperback 6.98452 0.153484 1.06856
thorax -6.658 0.313084 1.67182
lowerneck -13.5769 -3.4304 -9.4825
upperneck 36.427 -2.70194 5.30145
head 15.2573 -1.31616 3.59052
rclavicle 5.76476e-015 9.54166e-015
rhumerus -25.1593 -2.46016 -80.7307
rradius 55.8095
rwrist -2.00365
rhand -15.4752 10.2408
rfingers 7.12502
rthumb 10.7064 -19.4664
lclavicle 5.76476e-015 9.54166e-015
lhumerus -12.7781 -10.7221 86.0084
lradius 38.3162
lwrist -0.196071
lhand -22.4171 26.7395
lfingers 7.12502
lthumb 4.00595 56.6816
rfemur -22.5611 -2.80161 25.8035
rtibia 33.585
rfoot -15.1881 -9.20182
rtoes 13.0765
lfemur -32.2067 -3.83548 -15.7791
ltibia 26.2037
lfoot -4.84037 -3.19729
ltoes -10.9365
292
root 3.84449 17.8951 -9.45188 27.5968 88.4971 19.8287
lowerback 26.4684 -0.225979 -0.856269
upperback 7.12269 0.1528 0.946808
thorax -6.74786 0.319658 1.45714
lowerneck -13.6339 -3.36964 -9.42168
upperneck 36.1645 -2.6834 5.38354
head 15.1385 -1.29304 3.60452
rclavicle -1.05356e-014 0
rhumerus -25.0013 -2.17684 -80.842
rradius 56.4692
rwrist -2.11506
rhand -15.6374 10.2637
rfingers 7.12502
rthumb 10.5499 -19.4515
lclavicle -1.05356e-014 0
lhumerus -12.0489 -10.7818 85.9266
lradius 38.2687
lwrist -0.321289
lhand -22.7013 27.2064
lfingers 7.12502
lthumb 3.73154 57.1535
rfemur -22.7477 -2.82306 25.8223
rtibia 33.9829
rfoot -15.5982 -8.96565
rtoes 14.1406
lfemur -32.5217 -4.01042 -15.5717
ltibia 24.4078
lfoot -4.83412 -3.01164
ltoes -8.74554
293
root 3.90325 17.8864 -9.46432 24.0558 88.1081 16.0643
lowerback 26.8256 -0.166702 -0.983918
upperback 7.32935 0.204342 0.817988
thorax -6.69473 0.352714 1.37247
lowerneck -13.7665 -3.29865 -9.29058
upperneck 35.9064 -2.64759 5.41239
head 15.0361 -1.261 3.5861
rclavicle 1.39149e-015 -1.11319e-014
rhumerus -24.7141 -1.90653 -81.0037
rradius 57.0957
rwrist -2.11805
rhand -15.9747 10.1321
rfingers 7.12502
rthumb 10.2245 -19.5994
lclavicle 1.39149e-015 -1.11319e-014
lhumerus -11.2448 -10.89 85.8012
lradius 38.3318
lwrist -0.120185
lhand -23.1308 27.532
lfingers 7.12502
lthumb 3.31677 57.4859
rfemur -22.9791 -2.59417 25.7606
rtibia 34.3672
rfoot -15.8738 -8.91339
rtoes 13.9271
lfemur -32.8407 -4.05322 -15.4696
ltibia 22.6578
lfoot -4.87837 -2.72719
ltoes -8.47038
294
root 3.95889 17.8723 -9.47909 20.6329 87.7419 12.4994
lowerback 27.3196 -0.0961707 -1.13556
upperback 7.56949 0.274032 0.749984
thorax -6.6703 0.396948 1.36223
lowerneck -13.9238 -3.21939 -9.10651
upperneck 35.6109 -2.56798 5.30553
head 14.9154 -1.22148 3.50606
rclavicle 2.68359e-015 6.95746e-015
rhumerus -24.4179 -1.50728 -81.0247
rradius 57.7925
rwrist -2.41379
rhand -16.0606 10.0408
rfingers 7.12502
rthumb 10.1417 -19.6947
lclavicle 2.68359e-015 6.95746e-015
lhumerus -10.399 -10.9408 85.6684
lradius 38.4374
lwrist -0.0134552
lhand -23.1202 27.1773
lfingers 7.12502
lthumb 3.32701 57.1311
rfemur -23.16 -2.44122 25.743
rtibia 34.7613
rfoot -16.1179 -8.83756
rtoes 13.3346
lfemur -33.0801 -4.18661 -15.3167
ltibia 20.9355
lfoot -4.89731 -2.26963
ltoes -9.91277
295
root 4.01422 17.8547 -9.49645 16.6799 87.4806 8.37953
lowerback 27.8436 -0.0743282 -1.18995
upperback 7.76408 0.310316 0.755684
thorax -6.70848 0.424002 1.38752
lowerneck -14.0304 -3.13395 -9.10899
upperneck 35.306 -2.45596 5.28188
head 14.7829 -1.18187 3.50001
rclavicle -1.11319e-014 -3.57812e-015
rhumerus -24.192 -1.07203 -80.924
rradius 58.483
rwrist -2.70014
rhand -15.9085 10.0462
rfingers 7.12502
rthumb 10.2884 -19.6821
lclavicle -1.11319e-014 -3.57812e-015
lhumerus -9.66632 -11.0387 85.584
lradius 38.6269
lwrist 0.0617877
lhand -23.0203 27.0134
lfingers 7.12502
lthumb 3.42346 56.9657
rfemur -23.3766 -2.36997 25.7985
rtibia 35.186
rfoot -16.4083 -8.67207
rtoes 13.0611
lfemur -33.3499 -4.46534 -15.0047
ltibia 19.239
lfoot -4.88536 -1.80244
ltoes -10.3971
296
root 4.07064 17.8331 -9.51355 16.0739 87.313 7.50162
lowerback 28.2713 -0.117667 -1.31008
upperback 7.93904 0.242833 0.753733
thorax -6.71619 0.400586 1.47632
lowerneck -14.2248 -3.0743 -9.27745
upperneck 35.0475 -2.3594 5.35664
head 14.7005 -1.15825 3.56475
rclavicle 6.26172e-015 1.99779e-014
rhumerus -23.8935 -0.642521 -80.8841
rradius 59.0374
rwrist -2.83159
rhand -15.9895 10.1851
rfingers 7.12502
rthumb 10.2103 -19.5471
lclavicle 6.26172e-015 1.99779e-014
lhumerus -8.90751 -10.8817 85.5653
lradius 38.7505
lwrist -0.0322366
lhand -23.0735 27.2054
lfingers 7.12502
lthumb 3.3721 57.1585
rfemur -23.7099 -2.16763 25.7333
rtibia 35.6285
rfoot -16.7561 -8.67801
rtoes 13.0979
lfemur -33.7772 -4.77826 -14.8064
ltibia 17.6647
lfoot -4.83656 -1.57921
ltoes -10.7791
297
root 4.12586 17.8125 -9.52909 15.6611 87.123 6.75389
lowerback 28.6244 -0.171816 -1.46776
upperback 8.13921 0.149618 0.721229
thorax -6.65664 0.364574 1.56197
lowerneck -14.4901 -2.9894 -9.35743
upperneck 34.8223 -2.24013 5.41503
head 14.6454 -1.11563 3.61214
rclavicle 2.78299e-015 1.12313e-014
rhumerus -23.4806 -0.118959 -80.9005
rradius 59.5205
rwrist -2.97561
rhand -16.1248 10.3299
rfingers 7.12502
rthumb 10.0798 -19.4086
lclavicle 2.78299e-015 1.12313e-014
lhumerus -8.07583 -10.5726 85.4781
lradius 38.8369
lwrist -0.166891
lhand -23.1339 27.1257
lfingers 7.12502
lthumb 3.31376 57.0797
rfemur -24.1186 -2.00076 25.6949
rtibia 36.0753
rfoot -17.0762 -8.70001
rtoes 12.9951
lfemur -34.3063 -4.89745 -14.6813
ltibia 16.2304
lfoot -4.68744 -1.6919
ltoes -11.6426
298
root 4.18126 17.7914 -9.54391 11.9583 86.6953 2.79295
lowerback 29.0459 -0.137605 -1.55035
upperback 8.37572 0.184652 0.61885
thorax -6.59241 0.390552 1.48427
lowerneck -14.6523 -2.85359 -9.21612
upperneck 34.4724 -2.12878 5.47258
head 14.5034 -1.04685 3.61253
rclavicle -4.37326e-015 5.46658e-015
rhumerus -23.0893 0.156047 -81.0842
rradius 60.0418
rwrist -3.01495
rhand -16.0617 10.2904
rfingers 7.12502
rthumb 10.1407 -19.4452
lclavicle -4.37326e-015 5.46658e-015
lhumerus -7.18309 -10.5087 85.2196
lradius 38.9593
lwrist -0.0787305
lhand -23.2769 27.1379
lfingers 7.12502
lthumb 3.1757 57.094
rfemur -24.4582 -1.85255 25.824
rtibia 36.5362
rfoot -17.3339 -8.58295
rtoes 12.4222
lfemur -34.6921 -4.95683 -14.3079
ltibia 14.8946
lfoot -4.6193 -1.6931
ltoes -11.7455
